<svg width="20" height="20" viewBox="0 0 20 20" fill="none" xmlns="http://www.w3.org/2000/svg">
<g id="logo-youtube 1">
<path id="Vector" d="M16.9566 3.76686C19.2154 7.03576 20.3309 10.723 19.9139 14.9678C19.9121 14.9858 19.9026 15.0023 19.8876 15.0131C18.1771 16.2494 16.5199 16.9997 14.8859 17.4973C14.8732 17.5011 14.8596 17.5009 14.847 17.4967C14.8344 17.4925 14.8234 17.4845 14.8157 17.4739C14.4382 16.9569 14.0952 16.4118 13.7947 15.8394C13.7774 15.8057 13.7932 15.7651 13.8287 15.7518C14.3734 15.5498 14.8914 15.3077 15.3897 15.021C15.4289 14.9983 15.4314 14.943 15.3952 14.9164C15.2894 14.8391 15.1847 14.7579 15.0844 14.6767C15.0657 14.6617 15.0404 14.6588 15.0191 14.6688C11.7844 16.1392 8.24091 16.1392 4.96792 14.6688C4.94667 14.6595 4.92142 14.6627 4.90317 14.6775C4.80317 14.7587 4.69817 14.8391 4.59342 14.9164C4.55717 14.943 4.56017 14.9983 4.59967 15.021C5.09792 15.3022 5.61592 15.5498 6.15992 15.7528C6.19517 15.7661 6.21192 15.8057 6.19442 15.8394C5.90042 16.4126 5.55742 16.9576 5.17292 17.4746C5.15617 17.4955 5.12867 17.5051 5.10267 17.4973C3.47642 16.9997 1.81917 16.2494 0.108676 15.0131C0.0944256 15.0023 0.0841756 14.9851 0.0826756 14.9671C-0.265824 11.2954 0.444425 7.57762 3.03717 3.76612C3.04342 3.75603 3.05292 3.74816 3.06392 3.74348C4.33967 3.16717 5.70642 2.74318 7.13491 2.50104C7.16091 2.4971 7.18691 2.50891 7.20041 2.53155C7.37691 2.83915 7.57866 3.23361 7.71516 3.55597C9.22091 3.32958 10.7502 3.32958 12.2874 3.55597C12.4239 3.2405 12.6187 2.83915 12.7944 2.53155C12.8007 2.52032 12.8104 2.51132 12.8221 2.50584C12.8339 2.50036 12.8471 2.49868 12.8599 2.50104C14.2892 2.74392 15.6559 3.16791 16.9306 3.74348C16.9419 3.74816 16.9511 3.75603 16.9566 3.76686ZM8.48066 10.7481C8.49641 9.66264 7.69241 8.76445 6.68316 8.76445C5.68217 8.76445 4.88592 9.65476 4.88592 10.7481C4.88592 11.8412 5.69792 12.7315 6.68316 12.7315C7.68441 12.7315 8.48066 11.8412 8.48066 10.7481ZM15.1262 10.7481C15.1419 9.66264 14.3379 8.76445 13.3289 8.76445C12.3277 8.76445 11.5314 9.65476 11.5314 10.7481C11.5314 11.8412 12.3434 12.7315 13.3289 12.7315C14.3379 12.7315 15.1262 11.8412 15.1262 10.7481Z" fill="currentColor"/>
</g>
</svg>
