<svg width="20" height="20" viewBox="0 0 20 20" fill="none" xmlns="http://www.w3.org/2000/svg">
<g id="logo-github 1" clip-path="url(#clip0_1882_7506)">
<g id="Group">
<path id="Vector" fill-rule="evenodd" clip-rule="evenodd" d="M10 0.253906C4.5 0.253906 0 4.75391 0 10.2539C0 14.6289 2.875 18.3789 6.875 19.7539C7.375 19.8789 7.5 19.5039 7.5 19.2539C7.5 19.0039 7.5 18.3789 7.5 17.5039C4.75 18.1289 4.125 16.2539 4.125 16.2539C3.625 15.1289 3 14.7539 3 14.7539C2.125 14.1289 3.125 14.1289 3.125 14.1289C4.125 14.2539 4.625 15.1289 4.625 15.1289C5.5 16.7539 7 16.2539 7.5 16.0039C7.625 15.3789 7.875 14.8789 8.125 14.6289C5.875 14.3789 3.625 13.5039 3.625 9.62891C3.625 8.50391 4 7.62891 4.625 7.00391C4.5 6.75391 4.125 5.75391 4.75 4.37891C4.75 4.37891 5.625 4.12891 7.5 5.37891C8.25 5.12891 9.125 5.00391 10 5.00391C10.875 5.00391 11.75 5.12891 12.5 5.37891C14.375 4.12891 15.25 4.37891 15.25 4.37891C15.75 5.75391 15.5 6.75391 15.375 7.00391C16 7.75391 16.375 8.62891 16.375 9.62891C16.375 13.5039 14 14.2539 11.75 14.5039C12.125 15.0039 12.5 15.6289 12.5 16.5039C12.5 17.8789 12.5 18.8789 12.5 19.2539C12.5 19.5039 12.625 19.8789 13.25 19.7539C17.25 18.3789 20.125 14.6289 20.125 10.2539C20 4.75391 15.5 0.253906 10 0.253906Z" fill="currentColor"/>
</g>
</g>
<defs>
<clipPath id="clip0_1882_7506">
<rect width="20" height="20" fill="white"/>
</clipPath>
</defs>
</svg>
