<svg width="20" height="20" viewBox="0 0 20 20" fill="none" xmlns="http://www.w3.org/2000/svg">
<g id="logo-linkedin 1" clip-path="url(#clip0_1882_7502)">
<g id="Group">
<path id="Vector" d="M19.125 0H0.875C0.375 0 0 0.375 0 0.875V19.25C0 19.625 0.375 20 0.875 20H19.25C19.75 20 20.125 19.625 20.125 19.125V0.875C20 0.375 19.625 0 19.125 0ZM5.875 17H3V7.5H6V17H5.875ZM4.5 6.25C3.5 6.25 2.75 5.375 2.75 4.5C2.75 3.5 3.5 2.75 4.5 2.75C5.5 2.75 6.25 3.5 6.25 4.5C6.125 5.375 5.375 6.25 4.5 6.25ZM17 17H14V12.375C14 11.25 14 9.875 12.5 9.875C11 9.875 10.75 11.125 10.75 12.375V17.125H7.75V7.5H10.625V8.75C11 8 12 7.25 13.375 7.25C16.375 7.25 16.875 9.25 16.875 11.75V17H17Z" fill="currentColor"/>
</g>
</g>
<defs>
<clipPath id="clip0_1882_7502">
<rect width="20" height="20" fill="white"/>
</clipPath>
</defs>
</svg>
