<svg width="20" height="20" viewBox="0 0 20 20" fill="none" xmlns="http://www.w3.org/2000/svg">
<g id="logo-youtube 1">
<g id="Group">
<path id="Vector" d="M19.75 6C19.5 4.375 18.75 3.25 17 3C14.25 2.5 10 2.5 10 2.5C10 2.5 5.75 2.5 3 3C1.25 3.25 0.375 4.375 0.25 6C0 7.625 0 10 0 10C0 10 0 12.375 0.25 14C0.5 15.625 1.25 16.75 3 17C5.75 17.5 10 17.5 10 17.5C10 17.5 14.25 17.5 17 17C18.75 16.625 19.5 15.625 19.75 14C20 12.375 20 10 20 10C20 10 20 7.625 19.75 6ZM7.5 13.75V6.25L13.75 10L7.5 13.75Z" fill="currentColor"/>
</g>
</g>
</svg>
