<svg width="102" height="62" viewBox="0 0 102 62" fill="none" xmlns="http://www.w3.org/2000/svg">
<g clip-path="url(#clip0_1_651)">
<path fill-rule="evenodd" clip-rule="evenodd" d="M81.4118 52.9857C81.4016 52.9939 81.3913 53.0014 81.3811 53.0096L81.1091 52.6837C75.5029 57.2947 68.3819 59.7887 61.0332 59.7887C52.624 59.7887 44.7451 56.6142 38.8362 50.7937C32.9274 45.0496 29.6692 37.3399 29.6692 29.1761C29.6692 22.9029 31.5634 16.7803 35.2753 11.6403C38.9121 6.57591 43.9121 2.79672 49.8209 0.604752L49.5941 0C43.6087 2.26765 38.4577 6.12252 34.8209 11.2626C31.0332 16.5533 28.9879 22.7515 28.9879 29.1761C28.9879 37.4906 32.3213 45.3517 38.3818 51.2471C38.9517 51.8021 39.5449 52.3251 40.1482 52.8323L39.3665 53.7418C45.3512 58.8062 53.0784 61.6029 61.0332 61.6029C68.8363 61.6029 76.3359 58.8819 82.3213 54.0445L81.4118 52.9857Z" fill="#0074C7"/>
<path fill-rule="evenodd" clip-rule="evenodd" d="M35.5779 10.2793C35.4269 9.75026 35.3511 9.29687 35.3511 8.76779C35.3511 6.50014 36.866 4.45885 39.5932 4.45885C40.1994 4.45885 40.7296 4.53453 41.1841 4.68589C41.6385 4.30817 42.1688 3.92977 42.699 3.62774C41.7902 3.09867 40.7296 2.79663 39.5932 2.79663C36.2599 2.79663 33.4568 5.442 33.4568 8.76779C33.4568 9.90162 33.8361 11.0354 34.3657 11.9422C34.5174 11.7159 34.6691 11.4888 34.8201 11.3375C35.0477 10.9591 35.3511 10.5821 35.5779 10.2793Z" fill="black"/>
<path fill-rule="evenodd" clip-rule="evenodd" d="M43.7607 4.38306C43.2305 4.68509 42.776 4.98781 42.3216 5.36552C43.3063 6.12163 43.8366 7.40614 43.8366 8.767C43.8366 11.0346 42.1699 12.9996 39.5944 12.9996C38.1546 12.9996 37.0182 12.3948 36.2611 11.4124C36.1094 11.6394 35.9577 11.7908 35.806 12.0171C35.5791 12.3198 35.3522 12.6219 35.1998 12.9239C36.3369 13.9827 37.8519 14.6632 39.5944 14.6632C43.0029 14.6632 45.7308 12.0928 45.7308 8.767C45.7308 7.02842 44.973 5.4412 43.7607 4.38306Z" fill="black"/>
<path fill-rule="evenodd" clip-rule="evenodd" d="M32.9279 24.1874C32.9279 26.0017 31.8673 27.5889 30.2765 28.1937V29.1761V30.0079C32.852 29.3275 34.8214 27.0598 34.8214 24.1874C34.8214 22.1468 33.6857 20.3326 32.019 19.1987C31.7915 19.8035 31.6398 20.3326 31.4129 20.8616C32.3976 21.6934 32.9279 22.9029 32.9279 24.1874Z" fill="black"/>
<path fill-rule="evenodd" clip-rule="evenodd" d="M29.0629 28.4957H28.6844C26.1089 28.4957 24.3657 26.5308 24.3657 24.1874C24.3657 21.9955 25.8813 19.9548 28.6844 19.9548C29.2905 19.9548 29.8966 20.0298 30.3504 20.2569C30.5027 19.7271 30.6538 19.1987 30.8813 18.6697C30.1993 18.4426 29.4415 18.2913 28.6844 18.2913C25.2752 18.2913 22.548 20.9373 22.548 24.1874C22.548 27.5889 25.2752 30.1586 28.6844 30.1586H29.0629C29.0629 29.8566 28.9871 29.4782 28.9871 29.1761C28.9871 28.9491 29.0629 28.7227 29.0629 28.4957Z" fill="black"/>
<path fill-rule="evenodd" clip-rule="evenodd" d="M33.0788 35.525C35.806 35.525 37.321 37.5656 37.321 39.7575C37.321 41.7225 36.1094 43.4611 34.2152 43.9151C34.5179 44.4442 34.8213 44.8976 35.124 45.4267C37.4727 44.5956 39.2152 42.4786 39.2152 39.7575C39.2152 36.5074 36.4121 33.8621 33.0788 33.8621C32.2458 33.8621 31.4121 34.0134 30.7308 34.3155C30.806 34.8445 30.8819 35.4493 31.0336 35.9784C31.6397 35.6763 32.321 35.525 33.0788 35.525Z" fill="black"/>
<path fill-rule="evenodd" clip-rule="evenodd" d="M28.8354 39.7577C28.8354 38.6239 29.2147 37.5658 29.9718 36.7347C29.8201 36.1299 29.6691 35.5252 29.5933 34.9204C28.0024 35.9786 26.9419 37.7928 26.9419 39.7577C26.9419 43.1599 29.6691 45.7289 33.0783 45.7289C33.3052 45.7289 33.6086 45.7289 33.8361 45.6539C33.5327 45.1248 33.1542 44.5958 32.8507 44.0667C30.4269 43.9153 28.8354 42.1011 28.8354 39.7577Z" fill="black"/>
<path fill-rule="evenodd" clip-rule="evenodd" d="M62.8517 34.0891V40.9677C62.8517 42.555 62.3214 44.0665 60.2762 44.0665C58.2303 44.0665 57.7 42.555 57.7 40.9677V34.0891H55.8065V41.3455C55.8065 43.8395 57.3973 45.7294 60.2762 45.7294C63.1551 45.7294 64.7452 43.8395 64.7452 41.3455V34.0891H62.8517Z" fill="black"/>
<path fill-rule="evenodd" clip-rule="evenodd" d="M64.3663 12.849H69.518V14.4362H62.472V3.02295H64.3663V12.849Z" fill="black"/>
<path fill-rule="evenodd" clip-rule="evenodd" d="M1.0332 18.5183H7.69988V20.1805H2.92674V22.9023H7.62403V24.5652H2.92674V28.2687H7.69988V29.9316H1.0332V18.5183Z" fill="black"/>
<path fill-rule="evenodd" clip-rule="evenodd" d="M38.6844 17.9138L46.5634 26.0013V18.5186H48.4569V30.3852L40.578 22.4491V29.9318H38.6844V17.9138Z" fill="black"/>
<path fill-rule="evenodd" clip-rule="evenodd" d="M85.6547 18.5183H87.5489V29.9316H85.6547V18.5183Z" fill="black"/>
<path fill-rule="evenodd" clip-rule="evenodd" d="M19.442 35.752V38.4731H23.5325V40.061H19.442V45.5024H17.5485V34.0891H23.6849V35.752H19.442Z" fill="black"/>
<path fill-rule="evenodd" clip-rule="evenodd" d="M27.0182 10.1282H27.0941L28.9117 3.02318H30.7308L27.5485 14.8905L23.5332 6.34898L19.5185 14.8905L16.261 3.02318H18.1546L19.973 10.1282L23.5332 2.79614L27.0182 10.1282Z" fill="black"/>
<path fill-rule="evenodd" clip-rule="evenodd" d="M70.806 22.8266H70.7302L68.9118 29.9316H67.0941L70.2758 18.0649L74.2911 26.6815L78.3064 18.0649L81.5639 29.9316H79.6696L77.8513 22.8266H77.7754L74.2911 30.2343L70.806 22.8266Z" fill="black"/>
<path fill-rule="evenodd" clip-rule="evenodd" d="M71.7903 38.3971L69.9719 45.5021H68.0784L71.26 33.6348L75.3512 42.1763L79.3665 33.6348L82.5474 45.5021H80.6539L78.8355 38.3971L75.3512 45.7291L71.7903 38.3971Z" fill="black"/>
<path fill-rule="evenodd" clip-rule="evenodd" d="M46.3366 34.0891C47.3972 34.0891 48.6094 34.0891 49.5183 34.6182C50.5036 35.1473 51.1091 36.2811 51.1091 37.3392C51.1091 39.0021 49.9734 40.363 48.306 40.5137L51.9428 45.5024H49.8217L46.4125 40.665H45.1244V45.5024H43.2308V34.0891H46.3366ZM45.1244 39.1535H45.958C47.473 39.1535 49.2914 39.2285 49.2914 37.4149C49.2914 35.6006 47.3972 35.6763 45.8822 35.6763H45.1244V39.1535Z" fill="black"/>
<path fill-rule="evenodd" clip-rule="evenodd" d="M52.7753 3.02295C53.8359 3.02295 55.0481 3.02295 55.957 3.55202C56.9424 4.0811 57.4719 5.21492 57.4719 6.27307C57.4719 7.93665 56.4121 9.29683 54.6696 9.4475L58.3815 14.4362H56.2604L52.7753 9.59886H51.5631V14.4362H49.6696V3.02295H52.7753ZM51.5631 8.08732H52.3968C53.9117 8.08732 55.6543 8.163 55.6543 6.34875C55.6543 4.53449 53.76 4.61085 52.3209 4.61085H51.5631V8.08732Z" fill="black"/>
<path fill-rule="evenodd" clip-rule="evenodd" d="M74.7453 12.849H75.8058C78.3062 12.849 80.6542 11.9415 80.6542 8.69139C80.6542 5.3656 78.3062 4.61017 75.8058 4.61017H74.7453V12.849ZM72.8511 3.02295H75.9569C79.5936 3.02295 82.5484 4.76084 82.5484 8.69139C82.5484 12.6219 79.6695 14.4362 75.9569 14.4362H72.8511V3.02295Z" fill="black"/>
<path fill-rule="evenodd" clip-rule="evenodd" d="M100.049 27.9666C99.4424 28.3443 98.7604 28.4957 97.9274 28.4957C95.4271 28.4957 93.6852 26.6058 93.6852 24.2624C93.6852 21.9955 95.2002 19.9542 97.9274 19.9542C98.7604 19.9542 99.4424 20.1055 100.049 20.4076L100.957 19.0474C100.124 18.594 99.0638 18.2913 97.9274 18.2913C94.5941 18.2913 91.791 20.9373 91.791 24.2624C91.791 27.5889 94.5941 30.1586 97.9274 30.1586C99.0638 30.1586 100.124 29.9316 101.033 29.4025L100.049 27.9666Z" fill="black"/>
<path fill-rule="evenodd" clip-rule="evenodd" d="M19.5182 27.9666C18.9121 28.3443 18.2301 28.4957 17.473 28.4957C14.8968 28.4957 13.1542 26.6058 13.1542 24.2624C13.1542 21.9955 14.6692 19.9542 17.473 19.9542C18.2301 19.9542 18.9121 20.1055 19.5182 20.4076L20.5029 19.0474C19.594 18.594 18.5328 18.2913 17.473 18.2913C14.0638 18.2913 11.3365 20.9373 11.3365 24.2624C11.3365 27.5889 14.0638 30.1586 17.473 30.1586C18.5328 30.1586 19.594 29.9316 20.5029 29.4025L19.5182 27.9666Z" fill="black"/>
<path fill-rule="evenodd" clip-rule="evenodd" d="M62.7754 24.2632C62.7754 21.9955 61.2605 19.9549 58.5333 19.9549C55.7302 19.9549 54.2145 21.9955 54.2145 24.2632C54.2145 26.6065 55.9571 28.4957 58.5333 28.4957C61.0329 28.4957 62.7754 26.6065 62.7754 24.2632ZM64.6697 24.2632C64.6697 27.589 61.8659 30.1593 58.5333 30.1593C55.1241 30.1593 52.3969 27.589 52.3969 24.2632C52.3969 20.9374 55.1241 18.292 58.5333 18.292C61.8659 18.292 64.6697 20.9374 64.6697 24.2632Z" fill="black"/>
</g>
<defs>
<clipPath id="clip0_1_651">
<rect width="101" height="62" fill="white" transform="translate(0.5)"/>
</clipPath>
</defs>
</svg>
