<?xml version="1.0" encoding="UTF-8"?>
<svg xmlns="http://www.w3.org/2000/svg" xmlns:xlink="http://www.w3.org/1999/xlink" width="24px" height="24px" viewBox="0 0 24 24" version="1.1">
<g id="surface1">
<path style=" stroke:none;fill-rule:nonzero;fill:rgb(0%,0%,0%);fill-opacity:1;" d="M 15.601562 2.609375 C 13.457031 2.609375 11.5 3.421875 10.011719 4.746094 C 9.492188 4.644531 8.953125 4.589844 8.398438 4.589844 C 3.769531 4.589844 0 8.359375 0 12.988281 C 0 17.621094 3.769531 21.390625 8.398438 21.390625 C 10.542969 21.390625 12.5 20.578125 13.988281 19.253906 C 14.507812 19.355469 15.046875 19.410156 15.601562 19.410156 C 20.230469 19.410156 24 15.640625 24 11.011719 C 24 6.378906 20.230469 2.609375 15.601562 2.609375 Z M 11.714844 5.257812 C 12.503906 5.597656 13.242188 6.058594 13.894531 6.621094 L 13.113281 7.53125 C 12.550781 7.046875 11.917969 6.652344 11.238281 6.363281 Z M 8.621094 6.335938 L 9.621094 7.003906 C 9.207031 7.617188 8.890625 8.296875 8.683594 9.003906 L 7.53125 8.667969 C 7.773438 7.839844 8.144531 7.050781 8.621094 6.335938 Z M 14.804688 7.535156 C 15.367188 8.191406 15.820312 8.933594 16.15625 9.730469 L 15.046875 10.195312 C 14.765625 9.515625 14.371094 8.878906 13.894531 8.316406 Z M 7.269531 9.929688 L 8.457031 10.085938 C 8.363281 10.816406 8.382812 11.566406 8.515625 12.292969 L 7.335938 12.507812 C 7.179688 11.660156 7.15625 10.789062 7.269531 9.929688 Z M 16.558594 10.957031 C 16.664062 11.375 16.734375 11.800781 16.773438 12.230469 C 16.8125 12.65625 16.820312 13.089844 16.792969 13.519531 L 15.59375 13.445312 C 15.640625 12.707031 15.574219 11.960938 15.394531 11.246094 Z M 8.792969 13.363281 C 9.035156 14.0625 9.382812 14.722656 9.824219 15.3125 L 8.863281 16.03125 C 8.347656 15.339844 7.941406 14.570312 7.660156 13.753906 Z M 15.4375 14.539062 L 16.609375 14.800781 C 16.425781 15.640625 16.105469 16.453125 15.671875 17.195312 L 14.636719 16.59375 C 15.007812 15.957031 15.28125 15.257812 15.4375 14.539062 Z M 10.550781 16.148438 C 11.078125 16.664062 11.6875 17.101562 12.34375 17.433594 L 11.800781 18.503906 C 11.035156 18.117188 10.328125 17.609375 9.710938 17.003906 Z M 10.550781 16.148438 "/>
</g>
</svg>
