<svg width="42" height="42" viewBox="0 0 42 42" fill="none" xmlns="http://www.w3.org/2000/svg">
<path fill-rule="evenodd" clip-rule="evenodd" d="M21 39.0002C30.9411 39.0002 39 30.9414 39 21.0002C39 11.0591 30.9411 3.00024 21 3.00024C11.0589 3.00024 3 11.0591 3 21.0002C3 30.9414 11.0589 39.0002 21 39.0002ZM20.9989 9.6311C21.4319 9.6311 21.7829 9.98213 21.7829 10.4151V14.9231C21.7829 17.8458 24.1522 20.2151 27.0749 20.2151H31.5832C32.0162 20.2151 32.3672 20.5661 32.3672 20.9991C32.3672 21.4321 32.0162 21.7831 31.5832 21.7831H27.075C24.1523 21.7831 21.7829 24.1525 21.7829 27.0753V31.5839C21.7829 32.0169 21.4319 32.3679 20.9989 32.3679C20.5659 32.3679 20.2148 32.0169 20.2148 31.5839V27.0754C20.2148 24.1526 17.8454 21.7831 14.9226 21.7831H10.4144C9.98137 21.7831 9.63034 21.4321 9.63034 20.9991C9.63034 20.5661 9.98137 20.2151 10.4144 20.2151H14.9229C17.8455 20.2151 20.2148 17.8458 20.2148 14.9231V10.4151C20.2148 9.98213 20.5659 9.6311 20.9989 9.6311Z" fill="#E0FF20"/>
</svg>
