<svg width="349" height="200" viewBox="0 0 349 200" fill="none" xmlns="http://www.w3.org/2000/svg">
<path d="M106.167 139.202H57.3472V61.9224H106.167C127.939 61.9224 150.259 72.8705 150.259 100.562C150.259 128.25 127.939 139.202 106.167 139.202ZM100.627 21.9224C57.4272 21.9224 22.4072 56.9425 22.4072 100.146C22.4072 143.346 57.4272 178.366 100.627 178.366C143.827 178.366 178.847 143.346 178.847 100.146C178.847 56.9425 143.827 21.9224 100.627 21.9224Z" fill="white"/>
<path d="M103.199 84.4224H81.6708V116.707H103.199C118.839 116.707 124.367 110.214 124.367 100.566C124.367 90.9144 118.799 84.4224 103.199 84.4224Z" fill="white"/>
<path d="M273.318 102.734L260.386 67.4221H242.806L229.874 102.734L219.51 67.4221H196.41L218.158 135.514H237.742L251.478 102.55L265.454 135.514H285.038L306.782 67.4221H283.686L273.318 102.734Z" fill="white"/>
<path d="M285.04 135.512H265.456L251.48 102.552L237.744 135.512H218.156L196.412 67.4241H219.508L229.876 102.732L242.808 67.4241H260.384L273.32 102.732L283.684 67.4241H306.784L285.04 135.512ZM100.628 178.368C57.428 178.368 22.408 143.344 22.408 100.144C22.408 56.944 57.428 21.9241 100.628 21.9241C143.828 21.9241 178.848 56.944 178.848 100.144C178.848 143.344 143.828 178.368 100.628 178.368ZM248.652 0C219.064 0 192.488 12.8761 174.216 33.3281C155.944 12.8761 129.364 0 99.78 0C44.672 0 0 44.672 0 99.78C0 154.888 44.672 199.56 99.78 199.56C129.364 199.56 155.944 186.684 174.216 166.228C192.488 186.684 219.064 199.56 248.652 199.56C303.756 199.56 348.428 154.888 348.428 99.78C348.428 44.672 303.756 0 248.652 0Z" fill="#0C2950"/>
<path d="M103.199 116.706H81.6708V84.4216H103.199C118.799 84.4216 124.367 90.9137 124.367 100.566C124.367 110.214 118.839 116.706 103.199 116.706ZM106.167 61.9216H57.3468V139.202H106.167C127.939 139.202 150.259 128.254 150.259 100.562C150.259 72.8695 127.939 61.9216 106.167 61.9216Z" fill="#0C2950"/>
</svg>
