<svg width="89" height="18" viewBox="0 0 89 18" fill="none" xmlns="http://www.w3.org/2000/svg">
<path fill-rule="evenodd" clip-rule="evenodd" d="M25.3207 0H22.7109V14.1293H25.3207V0ZM5.18081 14.3804C4.05959 14.3804 3.05436 14.1481 2.16511 13.6836C1.28876 13.2062 0.567054 12.4642 0 11.4578L2.3391 9.96741C2.67417 10.6384 3.09946 11.1416 3.61497 11.4771C4.14336 11.7997 4.71686 11.961 5.33546 11.961C5.95406 11.961 6.44379 11.8191 6.80464 11.5352C7.17838 11.2513 7.36525 10.8771 7.36525 10.4126C7.36525 9.98677 7.22993 9.63838 6.95929 9.3674C6.68865 9.09643 6.34069 8.88352 5.9154 8.72868C5.503 8.56093 4.95528 8.38674 4.27223 8.20609C3.18968 7.92221 2.34554 7.46414 1.73982 6.83187C1.14699 6.19959 0.85058 5.38667 0.85058 4.39311C0.85058 3.59309 1.05034 2.88985 1.44985 2.28339C1.84937 1.66402 2.40998 1.18659 3.13168 0.851098C3.85339 0.515608 4.68464 0.347862 5.62543 0.347862C6.64355 0.347862 7.50702 0.56077 8.21583 0.986585C8.93754 1.4124 9.56258 2.03822 10.091 2.86404L7.77121 4.29633C7.43613 3.75438 7.09461 3.36728 6.74665 3.13502C6.39868 2.88985 5.97984 2.76727 5.49011 2.76727C4.93594 2.76727 4.48488 2.90275 4.13691 3.17373C3.78895 3.4447 3.61497 3.806 3.61497 4.25762C3.61497 4.70924 3.78895 5.05118 4.13691 5.28345C4.48488 5.50281 5.02616 5.72862 5.76075 5.96088C6.66288 6.24476 7.38458 6.50928 7.92586 6.75445C8.46714 6.99961 8.96976 7.41252 9.43371 7.99318C9.89766 8.56093 10.1296 9.31579 10.1296 10.2577C10.1296 11.0707 9.92988 11.7933 9.53037 12.4255C9.13085 13.0449 8.55735 13.5288 7.80987 13.8772C7.06239 14.2127 6.18604 14.3804 5.18081 14.3804ZM16.2024 14.3806C15.1843 14.3806 14.2693 14.1484 13.4574 13.6838C12.6455 13.2064 12.0075 12.5677 11.5436 11.7677C11.0796 10.9548 10.8477 10.0709 10.8477 9.11601C10.8477 8.16115 11.0796 7.27726 11.5436 6.46434C12.0075 5.65142 12.6455 5.0127 13.4574 4.54818C14.2693 4.07075 15.1843 3.83203 16.2024 3.83203C17.2206 3.83203 18.1356 4.07075 18.9475 4.54818C19.7594 5.0127 20.3974 5.65142 20.8613 6.46434C21.3253 7.27726 21.5572 8.16115 21.5572 9.11601C21.5572 10.0709 21.3253 10.9548 20.8613 11.7677C20.3974 12.5677 19.7594 13.2064 18.9475 13.6838C18.1356 14.1484 17.2206 14.3806 16.2024 14.3806ZM13.4574 9.11601C13.4574 9.64505 13.5669 10.1289 13.786 10.5677C14.018 11.0064 14.3402 11.3548 14.7526 11.6128C15.1779 11.8709 15.6612 11.9999 16.2024 11.9999C16.7437 11.9999 17.2206 11.8709 17.633 11.6128C18.0583 11.3548 18.3804 11.0064 18.5995 10.5677C18.8315 10.1289 18.9475 9.64505 18.9475 9.11601C18.9475 8.58697 18.8315 8.10309 18.5995 7.66437C18.3676 7.22565 18.0454 6.87725 17.633 6.61918C17.2206 6.34821 16.7437 6.21272 16.2024 6.21272C15.6612 6.21272 15.1843 6.34821 14.7719 6.61918C14.3595 6.87725 14.0373 7.22565 13.8054 7.66437C13.5734 8.10309 13.4574 8.58697 13.4574 9.11601ZM31.4369 14.3789C30.5348 14.3789 29.7035 14.1466 28.9432 13.6821C28.1828 13.2046 27.5771 12.5659 27.126 11.7659C26.6878 10.9659 26.4688 10.0884 26.4688 9.13359C26.4688 8.17873 26.6878 7.30129 27.126 6.50128C27.5771 5.68836 28.1828 5.04318 28.9432 4.56575C29.7035 4.08832 30.5348 3.84961 31.4369 3.84961C32.2617 3.84961 32.9254 4.00445 33.428 4.31414C33.9435 4.62382 34.3431 5.06899 34.6266 5.64965V4.06252H37.217V14.1272H34.6846V12.482C34.3882 13.0885 33.9822 13.5595 33.4667 13.895C32.9641 14.2176 32.2875 14.3789 31.4369 14.3789ZM29.0785 9.11423C29.0785 9.63037 29.1945 10.1143 29.4264 10.5659C29.6713 11.0046 29.9999 11.3594 30.4123 11.6304C30.8376 11.8885 31.3209 12.0175 31.8622 12.0175C32.4164 12.0175 32.9061 11.8885 33.3314 11.6304C33.7696 11.3723 34.1046 11.0239 34.3366 10.5852C34.5686 10.1465 34.6846 9.66263 34.6846 9.13359C34.6846 8.60455 34.5686 8.12066 34.3366 7.68194C34.1046 7.23032 33.7696 6.87548 33.3314 6.61741C32.9061 6.34643 32.4164 6.21095 31.8622 6.21095C31.3209 6.21095 30.8376 6.34643 30.4123 6.61741C29.9871 6.87548 29.6584 7.22387 29.4264 7.66259C29.1945 8.10131 29.0785 8.58519 29.0785 9.11423ZM41.3098 4.06391H38.7773V14.1286H41.3871V8.98014C41.3871 8.15432 41.6384 7.50269 42.141 7.02526C42.6436 6.53493 43.2816 6.28976 44.0548 6.28976H44.4221V3.83165C43.5715 3.78004 42.882 3.94133 42.3536 4.31553C41.8381 4.68973 41.4902 5.24458 41.3098 5.98008V4.06391ZM45.2852 4.06252H47.8562V5.68836C48.1526 5.0948 48.5522 4.64317 49.0548 4.33349C49.5574 4.0109 50.2275 3.84961 51.0651 3.84961C51.9672 3.84961 52.7985 4.08832 53.5588 4.56575C54.3192 5.04318 54.9185 5.68836 55.3566 6.50128C55.8077 7.30129 56.0332 8.17873 56.0332 9.13359C56.0332 10.0884 55.8077 10.9659 55.3566 11.7659C54.9185 12.5659 54.3192 13.2046 53.5588 13.6821C52.7985 14.1466 51.9672 14.3789 51.0651 14.3789C50.2533 14.3789 49.5896 14.2305 49.0741 13.9337C48.5715 13.624 48.1784 13.1917 47.8949 12.6369V17.9983H45.2852V4.06252ZM47.8176 9.13359C47.8176 9.66263 47.9336 10.1465 48.1655 10.5852C48.3975 11.0239 48.7261 11.3723 49.1514 11.6304C49.5896 11.8885 50.0858 12.0175 50.6398 12.0175C51.1811 12.0175 51.6579 11.8885 52.0703 11.6304C52.4956 11.3594 52.8242 11.0046 53.0562 10.5659C53.3011 10.1143 53.4235 9.63037 53.4235 9.11423C53.4235 8.58519 53.3075 8.10131 53.0755 7.66259C52.8436 7.22387 52.5149 6.87548 52.0896 6.61741C51.6643 6.34643 51.1811 6.21095 50.6398 6.21095C50.0858 6.21095 49.5896 6.34643 49.1514 6.61741C48.7261 6.87548 48.3975 7.23032 48.1655 7.68194C47.9336 8.12066 47.8176 8.60454 47.8176 9.13359ZM58.9728 13.8562C59.5527 14.1917 60.2036 14.3595 60.9253 14.3595C61.6985 14.3595 62.3236 14.2175 62.8004 13.9337C63.2773 13.6498 63.6381 13.2111 63.883 12.6175V14.1272H66.4154V4.0625H63.8056V9.57874C63.8056 10.4046 63.6059 11.0304 63.2064 11.4562C62.8069 11.8691 62.3107 12.0756 61.7179 12.0756C60.3775 12.0756 59.7074 11.2433 59.7074 9.57874V4.0625H57.0977V10.2175C57.0977 11.0433 57.2652 11.7723 57.6003 12.4046C57.9353 13.024 58.3929 13.5079 58.9728 13.8562ZM67.957 4.06429H70.5281V5.53529C71.0565 4.39978 72.0811 3.83203 73.6018 3.83203C74.3235 3.83203 74.9743 4.00623 75.5543 4.35462C76.1342 4.69011 76.5917 5.17399 76.9268 5.80627C77.2619 6.42563 77.4294 7.14823 77.4294 7.97405V14.129H74.8197V8.61277C74.8197 7.77405 74.6264 7.14823 74.2397 6.73532C73.8531 6.32241 73.3247 6.11595 72.6546 6.11595C72.0617 6.11595 71.5656 6.32886 71.166 6.75467C70.7665 7.16758 70.5668 7.78695 70.5668 8.61277V14.129H67.957V4.06429ZM81.5005 14.1293V9.34858L85.5407 14.1293H89.001L84.2455 8.74857L88.9817 4.0646H85.2701L81.5005 8.1292V0H78.8907V14.1293H81.5005Z" fill="black"/>
</svg>
