<svg width="115" height="26" viewBox="0 0 115 26" fill="none" xmlns="http://www.w3.org/2000/svg">
<path d="M7.48706 11.0645L7.50118 5.12147L12.542 7.96805L12.5258 13.5814L12.5168 13.5763L12.5129 14.9373L12.4957 20.8892L7.45766 18.0873L7.47111 12.4218L7.48382 12.429L7.48706 11.0645ZM5.85535 19.0234L5.83916 24.6419L0.801119 21.8401L0.814576 16.1768L5.85535 19.0234ZM19.1824 9.83374L14.1445 7.03196L14.1579 1.36869L19.1987 4.21529L19.1824 9.83374Z" stroke="black" stroke-width="1.6"/>
<path fill-rule="evenodd" clip-rule="evenodd" d="M51.3207 6H48.7109V20.1293H51.3207V6ZM31.1808 20.3804C30.0596 20.3804 29.0544 20.1481 28.1651 19.6836C27.2888 19.2062 26.5671 18.4642 26 17.4578L28.3391 15.9674C28.6742 16.6384 29.0995 17.1416 29.615 17.4771C30.1434 17.7997 30.7169 17.961 31.3355 17.961C31.9541 17.961 32.4438 17.8191 32.8046 17.5352C33.1784 17.2513 33.3653 16.8771 33.3653 16.4126C33.3653 15.9868 33.2299 15.6384 32.9593 15.3674C32.6887 15.0964 32.3407 14.8835 31.9154 14.7287C31.503 14.5609 30.9553 14.3867 30.2722 14.2061C29.1897 13.9222 28.3455 13.4641 27.7398 12.8319C27.147 12.1996 26.8506 11.3867 26.8506 10.3931C26.8506 9.59309 27.0503 8.88985 27.4499 8.28339C27.8494 7.66402 28.41 7.18659 29.1317 6.8511C29.8534 6.51561 30.6846 6.34786 31.6254 6.34786C32.6435 6.34786 33.507 6.56077 34.2158 6.98659C34.9375 7.4124 35.5626 8.03822 36.091 8.86404L33.7712 10.2963C33.4361 9.75438 33.0946 9.36728 32.7466 9.13502C32.3987 8.88985 31.9798 8.76727 31.4901 8.76727C30.9359 8.76727 30.4849 8.90275 30.1369 9.17373C29.7889 9.4447 29.615 9.806 29.615 10.2576C29.615 10.7092 29.7889 11.0512 30.1369 11.2834C30.4849 11.5028 31.0262 11.7286 31.7607 11.9609C32.6629 12.2448 33.3846 12.5093 33.9259 12.7544C34.4671 12.9996 34.9698 13.4125 35.4337 13.9932C35.8977 14.5609 36.1296 15.3158 36.1296 16.2577C36.1296 17.0707 35.9299 17.7933 35.5304 18.4255C35.1309 19.0449 34.5574 19.5288 33.8099 19.8772C33.0624 20.2127 32.186 20.3804 31.1808 20.3804ZM42.2024 20.3806C41.1843 20.3806 40.2693 20.1484 39.4574 19.6838C38.6455 19.2064 38.0075 18.5677 37.5436 17.7677C37.0796 16.9548 36.8477 16.0709 36.8477 15.116C36.8477 14.1612 37.0796 13.2773 37.5436 12.4643C38.0075 11.6514 38.6455 11.0127 39.4574 10.5482C40.2693 10.0707 41.1843 9.83203 42.2024 9.83203C43.2206 9.83203 44.1356 10.0707 44.9475 10.5482C45.7594 11.0127 46.3974 11.6514 46.8613 12.4643C47.3253 13.2773 47.5572 14.1612 47.5572 15.116C47.5572 16.0709 47.3253 16.9548 46.8613 17.7677C46.3974 18.5677 45.7594 19.2064 44.9475 19.6838C44.1356 20.1484 43.2206 20.3806 42.2024 20.3806ZM39.4574 15.116C39.4574 15.6451 39.5669 16.1289 39.786 16.5677C40.018 17.0064 40.3402 17.3548 40.7526 17.6128C41.1779 17.8709 41.6612 17.9999 42.2024 17.9999C42.7437 17.9999 43.2206 17.8709 43.633 17.6128C44.0583 17.3548 44.3804 17.0064 44.5995 16.5677C44.8315 16.1289 44.9475 15.6451 44.9475 15.116C44.9475 14.587 44.8315 14.1031 44.5995 13.6644C44.3676 13.2256 44.0454 12.8773 43.633 12.6192C43.2206 12.3482 42.7437 12.2127 42.2024 12.2127C41.6612 12.2127 41.1843 12.3482 40.7719 12.6192C40.3595 12.8773 40.0373 13.2256 39.8054 13.6644C39.5734 14.1031 39.4574 14.587 39.4574 15.116ZM57.4369 20.3789C56.5348 20.3789 55.7035 20.1466 54.9432 19.6821C54.1828 19.2046 53.5771 18.5659 53.126 17.7659C52.6878 16.9659 52.4688 16.0884 52.4688 15.1336C52.4688 14.1787 52.6878 13.3013 53.126 12.5013C53.5771 11.6884 54.1828 11.0432 54.9432 10.5658C55.7035 10.0883 56.5348 9.84961 57.4369 9.84961C58.2617 9.84961 58.9254 10.0045 59.428 10.3141C59.9435 10.6238 60.3431 11.069 60.6266 11.6496V10.0625H63.217V20.1272H60.6846V18.482C60.3882 19.0885 59.9822 19.5595 59.4667 19.895C58.9641 20.2176 58.2875 20.3789 57.4369 20.3789ZM55.0785 15.1142C55.0785 15.6304 55.1945 16.1143 55.4264 16.5659C55.6713 17.0046 55.9999 17.3594 56.4123 17.6304C56.8376 17.8885 57.3209 18.0175 57.8622 18.0175C58.4164 18.0175 58.9061 17.8885 59.3314 17.6304C59.7696 17.3723 60.1046 17.0239 60.3366 16.5852C60.5686 16.1465 60.6846 15.6626 60.6846 15.1336C60.6846 14.6045 60.5686 14.1207 60.3366 13.6819C60.1046 13.2303 59.7696 12.8755 59.3314 12.6174C58.9061 12.3464 58.4164 12.2109 57.8622 12.2109C57.3209 12.2109 56.8376 12.3464 56.4123 12.6174C55.9871 12.8755 55.6584 13.2239 55.4264 13.6626C55.1945 14.1013 55.0785 14.5852 55.0785 15.1142ZM67.3098 10.0639H64.7773V20.1286H67.3871V14.9801C67.3871 14.1543 67.6384 13.5027 68.141 13.0253C68.6436 12.5349 69.2816 12.2898 70.0548 12.2898H70.4221V9.83165C69.5715 9.78004 68.882 9.94133 68.3536 10.3155C67.8381 10.6897 67.4902 11.2446 67.3098 11.9801V10.0639ZM71.2852 10.0625H73.8562V11.6884C74.1526 11.0948 74.5522 10.6432 75.0548 10.3335C75.5574 10.0109 76.2275 9.84961 77.0651 9.84961C77.9672 9.84961 78.7985 10.0883 79.5588 10.5658C80.3192 11.0432 80.9185 11.6884 81.3566 12.5013C81.8077 13.3013 82.0332 14.1787 82.0332 15.1336C82.0332 16.0884 81.8077 16.9659 81.3566 17.7659C80.9185 18.5659 80.3192 19.2046 79.5588 19.6821C78.7985 20.1466 77.9672 20.3789 77.0651 20.3789C76.2533 20.3789 75.5896 20.2305 75.0741 19.9337C74.5715 19.624 74.1784 19.1917 73.8949 18.6369V23.9983H71.2852V10.0625ZM73.8176 15.1336C73.8176 15.6626 73.9336 16.1465 74.1655 16.5852C74.3975 17.0239 74.7261 17.3723 75.1514 17.6304C75.5896 17.8885 76.0858 18.0175 76.6398 18.0175C77.1811 18.0175 77.6579 17.8885 78.0703 17.6304C78.4956 17.3594 78.8242 17.0046 79.0562 16.5659C79.3011 16.1143 79.4235 15.6304 79.4235 15.1142C79.4235 14.5852 79.3075 14.1013 79.0755 13.6626C78.8436 13.2239 78.5149 12.8755 78.0896 12.6174C77.6643 12.3464 77.1811 12.2109 76.6398 12.2109C76.0858 12.2109 75.5896 12.3464 75.1514 12.6174C74.7261 12.8755 74.3975 13.2303 74.1655 13.6819C73.9336 14.1207 73.8176 14.6045 73.8176 15.1336ZM84.9728 19.8562C85.5527 20.1917 86.2036 20.3595 86.9253 20.3595C87.6985 20.3595 88.3236 20.2175 88.8004 19.9337C89.2773 19.6498 89.6381 19.2111 89.883 18.6175V20.1272H92.4154V10.0625H89.8056V15.5787C89.8056 16.4046 89.6059 17.0304 89.2064 17.4562C88.8069 17.8691 88.3107 18.0756 87.7179 18.0756C86.3775 18.0756 85.7074 17.2433 85.7074 15.5787V10.0625H83.0977V16.2175C83.0977 17.0433 83.2652 17.7723 83.6003 18.4046C83.9353 19.024 84.3929 19.5079 84.9728 19.8562ZM93.957 10.0643H96.5281V11.5353C97.0565 10.3998 98.0811 9.83203 99.6018 9.83203C100.324 9.83203 100.974 10.0062 101.554 10.3546C102.134 10.6901 102.592 11.174 102.927 11.8063C103.262 12.4256 103.429 13.1482 103.429 13.9741V20.129H100.82V14.6128C100.82 13.774 100.626 13.1482 100.24 12.7353C99.8531 12.3224 99.3247 12.1159 98.6546 12.1159C98.0617 12.1159 97.5656 12.3289 97.166 12.7547C96.7665 13.1676 96.5668 13.787 96.5668 14.6128V20.129H93.957V10.0643ZM107.5 20.1293V15.3486L111.541 20.1293H115.001L110.245 14.7486L114.982 10.0646H111.27L107.5 14.1292V6H104.891V20.1293H107.5Z" fill="black"/>
</svg>
